<?xml version="1.0" encoding="UTF-8"?>
<svg width="256px" height="256px" viewBox="0 0 256 256" version="1.1" xmlns="http://www.w3.org/2000/svg" xmlns:xlink="http://www.w3.org/1999/xlink">
    <!-- Generator: Sketch 49.3 (51167) - http://www.bohemiancoding.com/sketch -->
    <title>logo-svg</title>
    <desc>Created with Sketch.</desc>
    <defs></defs>
    <g id="logo-svg" stroke="none" stroke-width="1" fill="none" fill-rule="evenodd">
        <circle id="Oval-2" fill="#009C6B" cx="128" cy="128" r="128"></circle>
        <path d="M182,100.25 C180.299992,106.750033 176.250032,112.449975 169.85,117.35 C164.149971,121.650022 157.750035,124.449994 150.65,125.75 C154.350019,127.450009 157.399988,130.049982 159.8,133.55 C162.800015,137.65002 164.3,142.299974 164.3,147.5 C164.3,150.900017 163.650006,154.449982 162.35,158.15 C159.549986,165.750038 154.750034,171.649979 147.95,175.85 C142.049971,179.450018 135.650035,181.25 128.75,181.25 C126.649989,181.25 124.650009,181.050002 122.75,180.65 C111.749945,178.54999 106.25,172.750047 106.25,163.25 C106.25,161.949994 106.399998,160.600007 106.7,159.2 C98.899961,172.000064 89.200058,178.4 77.6,178.4 C74.399984,178.4 71.5500125,177.800006 69.05,176.6 C64.049975,174.199988 61.55,170.200028 61.55,164.6 C61.55,162.999992 61.7999975,161.150011 62.3,159.05 C62.6000015,157.749994 63.349994,157.000001 64.55,156.8 C64.950002,156.8 65.2999985,156.924999 65.6,157.175 C65.9000015,157.425001 66.05,157.849997 66.05,158.45 C66.05,159.850007 66.6249943,161.249993 67.775,162.65 C68.9250057,164.050007 70.3499915,164.899999 72.05,165.2 C75.450017,165.700003 78.9999815,164.500014 82.7,161.6 C87.300023,157.999982 91.1499845,152.450038 94.25,144.95 L108.8,110.3 C115.500034,94.1999195 125.149937,82.550036 137.75,75.35 C139.65001,74.2499945 141.399992,73.3500035 143,72.65 C141.499993,72.3499985 139.900009,72.1500005 138.2,72.05 C129.599957,71.649998 121.650036,73.1999825 114.35,76.7 C107.549966,80.0000165 102.450017,84.2999735 99.05,89.6 C96.849989,93.3000185 95.75,97.2999785 95.75,101.6 C95.75,106.400024 96.649991,109.249996 98.45,110.15 C99.7500065,110.750003 99.9500045,111.549995 99.05,112.55 C98.1499955,113.450005 96.8500085,113.700002 95.15,113.3 C92.749988,112.799998 90.2000135,111.350012 87.5,108.95 C83.699981,105.449983 81.8,101.300024 81.8,96.5 C81.8,95.499995 81.899999,94.4500055 82.1,93.35 C83.8000085,84.0499535 90.949937,76.2500315 103.55,69.95 C115.55006,63.94997 128.199933,61.249997 141.5,61.85 C153.60006,62.3500025 163.549961,65.6499695 171.35,71.75 C179.150039,77.8500305 183.05,85.099958 183.05,93.5 C183.05,95.8000115 182.700004,98.049989 182,100.25 Z M163.85,100.1 C164.650004,97.9999895 165.05,95.850011 165.05,93.65 C165.05,85.449959 160.600044,79.3000205 151.7,75.2 C147.69998,78.000014 144.350013,80.999984 141.65,84.2 C137.54998,88.800023 133.000025,97.1499395 128,109.25 L125.6,115.25 C128.800016,116.050004 132.099983,116.45 135.5,116.45 C141.900032,116.45 147.549975,115.200012 152.45,112.7 C158.050028,109.899986 161.84999,105.700028 163.85,100.1 Z M145.55,150.35 C146.050003,148.549991 146.3,146.800008 146.3,145.1 C146.3,136.399956 139.950063,130.900011 127.25,128.6 L120.65,127.4 L110.45,151.85 C113.850017,149.649989 116.649989,148.899996 118.85,149.6 C120.350007,150.100002 120.300008,151.499988 118.7,153.8 C118.299998,154.500003 118.1,155.599992 118.1,157.1 C118.1,159.800013 118.699994,162.249989 119.9,164.45 C121.400008,167.150013 123.449987,168.699998 126.05,169.1 C130.550023,169.700003 134.499983,168.275017 137.9,164.825 C141.300017,161.374983 143.849991,156.550031 145.55,150.35 Z" id="B" fill="#FFFFFF"></path>
    </g>
</svg>